<?xml version="1.0" encoding="utf-8"?>
<!-- Generator: Adobe Illustrator 26.5.0, SVG Export Plug-In . SVG Version: 6.00 Build 0)  -->
<svg version="1.1" id="Layer_1" xmlns="http://www.w3.org/2000/svg" xmlns:xlink="http://www.w3.org/1999/xlink" x="0px" y="0px"
	 viewBox="0 0 24 24" style="enable-background:new 0 0 24 24;" xml:space="preserve">
<style type="text/css">
	.st0{fill:none;stroke:#231F20;stroke-width:0.1;stroke-miterlimit:10;}
	.st1{fill:none;stroke:#000000;stroke-width:2;stroke-linecap:round;stroke-linejoin:round;stroke-miterlimit:10;}
	.st2{fill:none;}
</style>
<rect x="40.54" y="0.28" class="st0" width="24" height="24"/>
<rect x="43.54" y="3.28" class="st0" width="18" height="18"/>
<polyline class="st0" points="49.04,21.28 58.04,12.28 49.04,3.28 "/>
<rect x="65.62" y="0.28" class="st0" width="24" height="24"/>
<rect x="68.62" y="3.28" class="st0" width="18" height="18"/>
<polyline class="st1" points="74.12,21.28 83.12,12.28 74.12,3.28 "/>
<rect x="94.51" y="0.28" class="st0" width="24" height="24"/>
<rect x="97.51" y="3.28" class="st0" width="18" height="18"/>
<g>
	<path d="M104.01,21.28c-0.23,0-0.46-0.09-0.64-0.26c-0.35-0.35-0.35-0.92,0-1.27l7.46-7.46l-7.46-7.46c-0.35-0.35-0.35-0.92,0-1.27
		s0.92-0.35,1.27,0l8.1,8.1c0.17,0.17,0.26,0.4,0.26,0.64c0,0.24-0.09,0.47-0.26,0.64l-8.1,8.1
		C104.47,21.19,104.24,21.28,104.01,21.28z"/>
</g>
<g>
	<rect class="st2" width="24" height="24"/>
	<g>
		<path d="M9.5,21c-0.23,0-0.46-0.09-0.64-0.26c-0.35-0.35-0.35-0.92,0-1.27L16.33,12L8.86,4.54c-0.35-0.35-0.35-0.92,0-1.27
			s0.92-0.35,1.27,0l8.1,8.1c0.17,0.17,0.26,0.4,0.26,0.64c0,0.24-0.09,0.47-0.26,0.64l-8.1,8.1C9.96,20.91,9.73,21,9.5,21z"/>
	</g>
</g>
</svg>
